<?xml version="1.0" encoding="utf-8" standalone="no"?>
<!DOCTYPE svg PUBLIC "-//W3C//DTD SVG 1.1//EN"
  "http://www.w3.org/Graphics/SVG/1.1/DTD/svg11.dtd">
<svg xmlns:xlink="http://www.w3.org/1999/xlink" width="750.629281pt" height="319.227pt" viewBox="0 0 750.629281 319.227" xmlns="http://www.w3.org/2000/svg" version="1.1"><rect x="-14.0" y="-14.0" width="778.629281" height="347.227" fill="#ffffff" rx="6"/>
 <metadata>
  <rdf:RDF xmlns:dc="http://purl.org/dc/elements/1.1/" xmlns:cc="http://creativecommons.org/ns#" xmlns:rdf="http://www.w3.org/1999/02/22-rdf-syntax-ns#">
   <cc:Work>
    <dc:type rdf:resource="http://purl.org/dc/dcmitype/StillImage"/>
    <dc:date>2026-10-06T11:49:16.695529</dc:date>
    <dc:format>image/svg+xml</dc:format>
    <dc:creator>
     <cc:Agent>
      <dc:title>Matplotlib v3.11.2, https://matplotlib.org/</dc:title>
     </cc:Agent>
    </dc:creator>
   </cc:Work>
  </rdf:RDF>
 </metadata>
 <defs>
  <style type="text/css">*{stroke-linejoin: round; stroke-linecap: butt}</style>
 </defs>
 <g id="figure_1">
  <g id="patch_1">
   <path d="M 0 319.227 
L 750.629281 319.227 
L 750.629281 0 
L 0 0 
z
" style="fill: #ffffff"/>
  </g>
  <g id="axes_1">
   <g id="patch_2">
    <path d="M 68.431 212.307 
C 68.431 211.113984 67.956571 209.96861 67.112981 209.125019 
C 66.26939 208.281429 65.124016 207.807 63.931 207.807 
C 62.737984 207.807 61.59261 208.281429 60.749019 209.125019 
C 59.905429 209.96861 59.431 211.113984 59.431 212.307 
" clip-path="url(#p43fc05ffa1)" style="fill: none; stroke: #000000; stroke-width: 1.5; stroke-linejoin: miter"/>
   </g>
   <g id="patch_3">
    <path d="M 77.431 212.307 
C 77.431 211.113984 76.956571 209.96861 76.112981 209.125019 
C 75.26939 208.281429 74.124016 207.807 72.931 207.807 
C 71.737984 207.807 70.59261 208.281429 69.749019 209.125019 
C 68.905429 209.96861 68.431 211.113984 68.431 212.307 
" clip-path="url(#p43fc05ffa1)" style="fill: none; stroke: #000000; stroke-width: 1.5; stroke-linejoin: miter"/>
   </g>
   <g id="patch_4">
    <path d="M 86.431 212.307 
C 86.431 211.113984 85.956571 209.96861 85.112981 209.125019 
C 84.26939 208.281429 83.124016 207.807 81.931 207.807 
C 80.737984 207.807 79.59261 208.281429 78.749019 209.125019 
C 77.905429 209.96861 77.431 211.113984 77.431 212.307 
" clip-path="url(#p43fc05ffa1)" style="fill: none; stroke: #000000; stroke-width: 1.5; stroke-linejoin: miter"/>
   </g>
   <g id="patch_5">
    <path d="M 95.431 212.307 
C 95.431 211.113984 94.956571 209.96861 94.112981 209.125019 
C 93.26939 208.281429 92.124016 207.807 90.931 207.807 
C 89.737984 207.807 88.59261 208.281429 87.749019 209.125019 
C 86.905429 209.96861 86.431 211.113984 86.431 212.307 
" clip-path="url(#p43fc05ffa1)" style="fill: none; stroke: #000000; stroke-width: 1.5; stroke-linejoin: miter"/>
   </g>
   <g id="patch_6">
    <path d="M 117.031 242.907 
C 118.224016 242.907 119.36939 242.432571 120.212981 241.588981 
C 121.056571 240.74539 121.531 239.600016 121.531 238.407 
C 121.531 237.213984 121.056571 236.06861 120.212981 235.225019 
C 119.36939 234.381429 118.224016 233.907 117.031 233.907 
" clip-path="url(#p43fc05ffa1)" style="fill: none; stroke: #000000; stroke-width: 1.5; stroke-linejoin: miter"/>
   </g>
   <g id="patch_7">
    <path d="M 117.031 251.907 
C 118.224016 251.907 119.36939 251.432571 120.212981 250.588981 
C 121.056571 249.74539 121.531 248.600016 121.531 247.407 
C 121.531 246.213984 121.056571 245.06861 120.212981 244.225019 
C 119.36939 243.381429 118.224016 242.907 117.031 242.907 
" clip-path="url(#p43fc05ffa1)" style="fill: none; stroke: #000000; stroke-width: 1.5; stroke-linejoin: miter"/>
   </g>
   <g id="patch_8">
    <path d="M 117.031 260.907 
C 118.224016 260.907 119.36939 260.432571 120.212981 259.588981 
C 121.056571 258.74539 121.531 257.600016 121.531 256.407 
C 121.531 255.213984 121.056571 254.06861 120.212981 253.225019 
C 119.36939 252.381429 118.224016 251.907 117.031 251.907 
" clip-path="url(#p43fc05ffa1)" style="fill: none; stroke: #000000; stroke-width: 1.5; stroke-linejoin: miter"/>
   </g>
   <g id="patch_9">
    <path d="M 117.031 269.907 
C 118.224016 269.907 119.36939 269.432571 120.212981 268.588981 
C 121.056571 267.74539 121.531 266.600016 121.531 265.407 
C 121.531 264.213984 121.056571 263.06861 120.212981 262.225019 
C 119.36939 261.381429 118.224016 260.907 117.031 260.907 
" clip-path="url(#p43fc05ffa1)" style="fill: none; stroke: #000000; stroke-width: 1.5; stroke-linejoin: miter"/>
   </g>
   <g id="patch_10">
    <path d="M 243.031 137.907 
C 241.837984 137.907 240.69261 138.381429 239.849019 139.225019 
C 239.005429 140.06861 238.531 141.213984 238.531 142.407 
C 238.531 143.600016 239.005429 144.74539 239.849019 145.588981 
C 240.69261 146.432571 241.837984 146.907 243.031 146.907 
" clip-path="url(#p43fc05ffa1)" style="fill: none; stroke: #000000; stroke-width: 1.5; stroke-linejoin: miter"/>
   </g>
   <g id="patch_11">
    <path d="M 243.031 128.907 
C 241.837984 128.907 240.69261 129.381429 239.849019 130.225019 
C 239.005429 131.06861 238.531 132.213984 238.531 133.407 
C 238.531 134.600016 239.005429 135.74539 239.849019 136.588981 
C 240.69261 137.432571 241.837984 137.907 243.031 137.907 
" clip-path="url(#p43fc05ffa1)" style="fill: none; stroke: #000000; stroke-width: 1.5; stroke-linejoin: miter"/>
   </g>
   <g id="patch_12">
    <path d="M 243.031 119.907 
C 241.837984 119.907 240.69261 120.381429 239.849019 121.225019 
C 239.005429 122.06861 238.531 123.213984 238.531 124.407 
C 238.531 125.600016 239.005429 126.74539 239.849019 127.588981 
C 240.69261 128.432571 241.837984 128.907 243.031 128.907 
" clip-path="url(#p43fc05ffa1)" style="fill: none; stroke: #000000; stroke-width: 1.5; stroke-linejoin: miter"/>
   </g>
   <g id="patch_13">
    <path d="M 243.031 110.907 
C 241.837984 110.907 240.69261 111.381429 239.849019 112.225019 
C 239.005429 113.06861 238.531 114.213984 238.531 115.407 
C 238.531 116.600016 239.005429 117.74539 239.849019 118.588981 
C 240.69261 119.432571 241.837984 119.907 243.031 119.907 
" clip-path="url(#p43fc05ffa1)" style="fill: none; stroke: #000000; stroke-width: 1.5; stroke-linejoin: miter"/>
   </g>
   <g id="patch_14">
    <path d="M 485.431 56.907 
C 484.237984 56.907 483.09261 57.381429 482.249019 58.225019 
C 481.405429 59.06861 480.931 60.213984 480.931 61.407 
C 480.931 62.600016 481.405429 63.74539 482.249019 64.588981 
C 483.09261 65.432571 484.237984 65.907 485.431 65.907 
" clip-path="url(#p43fc05ffa1)" style="fill: none; stroke: #000000; stroke-width: 1.5; stroke-linejoin: miter"/>
   </g>
   <g id="patch_15">
    <path d="M 485.431 47.907 
C 484.237984 47.907 483.09261 48.381429 482.249019 49.225019 
C 481.405429 50.06861 480.931 51.213984 480.931 52.407 
C 480.931 53.600016 481.405429 54.74539 482.249019 55.588981 
C 483.09261 56.432571 484.237984 56.907 485.431 56.907 
" clip-path="url(#p43fc05ffa1)" style="fill: none; stroke: #000000; stroke-width: 1.5; stroke-linejoin: miter"/>
   </g>
   <g id="patch_16">
    <path d="M 485.431 38.907 
C 484.237984 38.907 483.09261 39.381429 482.249019 40.225019 
C 481.405429 41.06861 480.931 42.213984 480.931 43.407 
C 480.931 44.600016 481.405429 45.74539 482.249019 46.588981 
C 483.09261 47.432571 484.237984 47.907 485.431 47.907 
" clip-path="url(#p43fc05ffa1)" style="fill: none; stroke: #000000; stroke-width: 1.5; stroke-linejoin: miter"/>
   </g>
   <g id="patch_17">
    <path d="M 485.431 29.907 
C 484.237984 29.907 483.09261 30.381429 482.249019 31.225019 
C 481.405429 32.06861 480.931 33.213984 480.931 34.407 
C 480.931 35.600016 481.405429 36.74539 482.249019 37.588981 
C 483.09261 38.432571 484.237984 38.907 485.431 38.907 
" clip-path="url(#p43fc05ffa1)" style="fill: none; stroke: #000000; stroke-width: 1.5; stroke-linejoin: miter"/>
   </g>
   <g id="line2d_1">
    <path d="M 37.831 212.307 
L 37.831 241.467 
M 46.831 241.467 
L 28.831 241.467 
M 46.831 247.947 
L 28.831 247.947 
M 37.831 247.947 
L 37.831 277.107 
" clip-path="url(#p43fc05ffa1)" style="fill: none; stroke: #000000; stroke-width: 1.5; stroke-linecap: round"/>
   </g>
   <g id="line2d_2">
    <path d="M 37.831 277.107 
L 37.831 291.507 
L 28.831 291.507 
L 46.831 291.507 
M 31.531 295.827 
L 44.131 295.827 
M 36.031 300.147 
L 39.631 300.147 
" clip-path="url(#p43fc05ffa1)" style="fill: none; stroke: #000000; stroke-width: 1.5; stroke-linecap: round"/>
   </g>
   <g id="line2d_3">
    <path d="M 37.831 212.307 
L 59.431 212.307 
M 95.431 212.307 
L 117.031 212.307 
" clip-path="url(#p43fc05ffa1)" style="fill: none; stroke: #000000; stroke-width: 1.5; stroke-linecap: round"/>
   </g>
   <g id="line2d_4">
    <path d="M 117.031 212.307 
L 153.391 212.307 
M 153.391 203.307 
L 153.391 221.307 
M 159.871 203.307 
L 159.871 221.307 
M 159.871 212.307 
L 196.231 212.307 
" clip-path="url(#p43fc05ffa1)" style="fill: none; stroke: #000000; stroke-width: 1.5; stroke-linecap: round"/>
   </g>
   <g id="line2d_5">
    <path d="M 187.231 171.807 
L 187.231 174.807 
" clip-path="url(#p43fc05ffa1)" style="fill: none; stroke: #000000; stroke-width: 1.5; stroke-linecap: round"/>
   </g>
   <g id="line2d_6">
    <path d="M 187.231 180.807 
L 187.231 183.807 
" clip-path="url(#p43fc05ffa1)" style="fill: none; stroke: #000000; stroke-width: 1.5; stroke-linecap: round"/>
   </g>
   <g id="line2d_7">
    <path d="M 187.231 189.807 
L 187.231 192.807 
" clip-path="url(#p43fc05ffa1)" style="fill: none; stroke: #000000; stroke-width: 1.5; stroke-linecap: round"/>
   </g>
   <g id="line2d_8">
    <path d="M 196.231 173.307 
L 196.231 152.307 
" clip-path="url(#p43fc05ffa1)" style="fill: none; stroke: #000000; stroke-width: 1.5; stroke-linecap: round"/>
   </g>
   <g id="line2d_9">
    <path d="M 187.231 173.307 
L 196.231 173.307 
" clip-path="url(#p43fc05ffa1)" style="fill: none; stroke: #000000; stroke-width: 1.5; stroke-linecap: round"/>
   </g>
   <g id="line2d_10">
    <path d="M 196.231 212.307 
L 196.231 191.307 
" clip-path="url(#p43fc05ffa1)" style="fill: none; stroke: #000000; stroke-width: 1.5; stroke-linecap: round"/>
   </g>
   <g id="line2d_11">
    <path d="M 187.231 191.307 
L 196.231 191.307 
" clip-path="url(#p43fc05ffa1)" style="fill: none; stroke: #000000; stroke-width: 1.5; stroke-linecap: round"/>
   </g>
   <g id="line2d_12">
    <path d="M 166.231 194.307 
L 181.231 194.307 
" clip-path="url(#p43fc05ffa1)" style="fill: none; stroke: #000000; stroke-width: 1.5; stroke-linecap: round"/>
   </g>
   <g id="line2d_13">
    <path d="M 181.231 194.307 
L 181.231 170.307 
" clip-path="url(#p43fc05ffa1)" style="fill: none; stroke: #000000; stroke-width: 1.5; stroke-linecap: round"/>
   </g>
   <g id="line2d_14">
    <path d="M 193.231 182.307 
L 196.231 182.307 
" clip-path="url(#p43fc05ffa1)" style="fill: none; stroke: #000000; stroke-width: 1.5; stroke-linecap: round"/>
   </g>
   <g id="patch_18">
    <path d="M 193.231 185.307 
L 187.231 182.307 
L 193.231 179.307 
z
" clip-path="url(#p43fc05ffa1)"/>
   </g>
   <g id="line2d_15">
    <path d="M 196.231 182.307 
L 196.231 191.307 
" clip-path="url(#p43fc05ffa1)" style="fill: none; stroke: #000000; stroke-width: 1.5; stroke-linecap: round"/>
   </g>
   <g id="line2d_16">
    <path d="M 196.231 212.307 
L 196.231 241.107 
L 196.231 269.907 
" clip-path="url(#p43fc05ffa1)" style="fill: none; stroke-dasharray: 5.55,2.4; stroke-dashoffset: 0; stroke: #b3392f; stroke-width: 1.5"/>
   </g>
   <g id="line2d_17">
    <path d="M 176.731 260.907 
L 173.731 260.907 
" clip-path="url(#p43fc05ffa1)" style="fill: none; stroke-dasharray: 5.55,2.4; stroke-dashoffset: 0; stroke: #000000; stroke-width: 1.5"/>
   </g>
   <g id="line2d_18">
    <path d="M 167.731 260.907 
L 164.731 260.907 
" clip-path="url(#p43fc05ffa1)" style="fill: none; stroke-dasharray: 5.55,2.4; stroke-dashoffset: 0; stroke: #000000; stroke-width: 1.5"/>
   </g>
   <g id="line2d_19">
    <path d="M 158.731 260.907 
L 155.731 260.907 
" clip-path="url(#p43fc05ffa1)" style="fill: none; stroke-dasharray: 5.55,2.4; stroke-dashoffset: 0; stroke: #000000; stroke-width: 1.5"/>
   </g>
   <g id="line2d_20">
    <path d="M 175.231 269.907 
L 196.231 269.907 
" clip-path="url(#p43fc05ffa1)" style="fill: none; stroke-dasharray: 5.55,2.4; stroke-dashoffset: 0; stroke: #000000; stroke-width: 1.5"/>
   </g>
   <g id="line2d_21">
    <path d="M 175.231 260.907 
L 175.231 269.907 
" clip-path="url(#p43fc05ffa1)" style="fill: none; stroke-dasharray: 5.55,2.4; stroke-dashoffset: 0; stroke: #000000; stroke-width: 1.5"/>
   </g>
   <g id="line2d_22">
    <path d="M 136.231 269.907 
L 157.231 269.907 
" clip-path="url(#p43fc05ffa1)" style="fill: none; stroke-dasharray: 5.55,2.4; stroke-dashoffset: 0; stroke: #000000; stroke-width: 1.5"/>
   </g>
   <g id="line2d_23">
    <path d="M 157.231 260.907 
L 157.231 269.907 
" clip-path="url(#p43fc05ffa1)" style="fill: none; stroke-dasharray: 5.55,2.4; stroke-dashoffset: 0; stroke: #000000; stroke-width: 1.5"/>
   </g>
   <g id="line2d_24">
    <path d="M 154.231 239.907 
L 154.231 254.907 
" clip-path="url(#p43fc05ffa1)" style="fill: none; stroke-dasharray: 5.55,2.4; stroke-dashoffset: 0; stroke: #000000; stroke-width: 1.5"/>
   </g>
   <g id="line2d_25">
    <path d="M 154.231 254.907 
L 178.231 254.907 
" clip-path="url(#p43fc05ffa1)" style="fill: none; stroke-dasharray: 5.55,2.4; stroke-dashoffset: 0; stroke: #000000; stroke-width: 1.5"/>
   </g>
   <g id="line2d_26">
    <path d="M 166.231 266.907 
L 166.231 269.907 
" clip-path="url(#p43fc05ffa1)" style="fill: none; stroke-dasharray: 5.55,2.4; stroke-dashoffset: 0; stroke: #000000; stroke-width: 1.5"/>
   </g>
   <g id="patch_19">
    <path d="M 163.231 266.907 
L 166.231 260.907 
L 169.231 266.907 
z
" clip-path="url(#p43fc05ffa1)"/>
   </g>
   <g id="line2d_27">
    <path d="M 166.231 269.907 
L 157.231 269.907 
" clip-path="url(#p43fc05ffa1)" style="fill: none; stroke-dasharray: 5.55,2.4; stroke-dashoffset: 0; stroke: #000000; stroke-width: 1.5"/>
   </g>
   <g id="line2d_28">
    <path d="M 136.231 269.907 
L 136.231 280.707 
L 136.231 291.507 
" clip-path="url(#p43fc05ffa1)" style="fill: none; stroke-dasharray: 5.55,2.4; stroke-dashoffset: 0; stroke: #b3392f; stroke-width: 1.5"/>
   </g>
   <g id="line2d_29">
    <path d="M 136.231 291.507 
L 136.231 305.907 
L 127.231 305.907 
L 145.231 305.907 
M 129.931 310.227 
L 142.531 310.227 
M 134.431 314.547 
L 138.031 314.547 
" clip-path="url(#p43fc05ffa1)" style="fill: none; stroke: #b3392f; stroke-width: 1.5; stroke-linecap: round"/>
   </g>
   <g id="line2d_30">
    <path d="M 196.231 212.307 
L 156.631 212.307 
L 117.031 212.307 
" clip-path="url(#p43fc05ffa1)" style="fill: none; stroke: #000000; stroke-width: 1.5; stroke-linecap: round"/>
   </g>
   <g id="line2d_31">
    <path d="M 117.031 212.307 
L 117.031 233.907 
M 117.031 269.907 
L 117.031 291.507 
" clip-path="url(#p43fc05ffa1)" style="fill: none; stroke: #000000; stroke-width: 1.5; stroke-linecap: round"/>
   </g>
   <g id="line2d_32">
    <path d="M 117.031 291.507 
L 117.031 305.907 
L 108.031 305.907 
L 126.031 305.907 
M 110.731 310.227 
L 123.331 310.227 
M 115.231 314.547 
L 118.831 314.547 
" clip-path="url(#p43fc05ffa1)" style="fill: none; stroke: #000000; stroke-width: 1.5; stroke-linecap: round"/>
   </g>
   <g id="line2d_33">
    <path d="M 196.231 152.307 
L 219.631 152.307 
L 243.031 152.307 
" clip-path="url(#p43fc05ffa1)" style="fill: none; stroke: #000000; stroke-width: 1.5; stroke-linecap: round"/>
   </g>
   <g id="line2d_34">
    <path d="M 243.031 152.307 
L 243.031 146.907 
M 243.031 110.907 
L 243.031 105.507 
" clip-path="url(#p43fc05ffa1)" style="fill: none; stroke: #000000; stroke-width: 1.5; stroke-linecap: round"/>
   </g>
   <g id="line2d_35">
    <path d="M 243.031 105.507 
L 243.031 100.107 
L 234.031 97.107 
L 252.031 91.107 
L 234.031 85.107 
L 252.031 79.107 
L 234.031 73.107 
L 252.031 67.107 
L 243.031 64.107 
L 243.031 58.707 
" clip-path="url(#p43fc05ffa1)" style="fill: none; stroke: #000000; stroke-width: 1.5; stroke-linecap: round"/>
   </g>
   <g id="line2d_36">
    <path d="M 243.031 58.707 
L 243.031 73.107 
L 234.031 73.107 
L 252.031 73.107 
M 236.731 77.427 
L 249.331 77.427 
M 241.231 81.747 
L 244.831 81.747 
" clip-path="url(#p43fc05ffa1)" style="fill: none; stroke: #000000; stroke-width: 1.5; stroke-linecap: round"/>
   </g>
   <g id="line2d_37">
    <path d="M 243.031 152.307 
L 286.231 152.307 
L 329.431 152.307 
" clip-path="url(#p43fc05ffa1)" style="fill: none; stroke: #000000; stroke-width: 1.5; stroke-linecap: round"/>
   </g>
   <g id="line2d_38">
    <path d="M 329.431 152.307 
L 329.431 108.747 
M 320.431 108.747 
L 338.431 108.747 
M 320.431 102.267 
L 338.431 102.267 
M 329.431 102.267 
L 329.431 58.707 
" clip-path="url(#p43fc05ffa1)" style="fill: none; stroke: #000000; stroke-width: 1.5; stroke-linecap: round"/>
   </g>
   <g id="line2d_39">
    <path d="M 329.431 58.707 
L 329.431 73.107 
L 320.431 73.107 
L 338.431 73.107 
M 323.131 77.427 
L 335.731 77.427 
M 327.631 81.747 
L 331.231 81.747 
" clip-path="url(#p43fc05ffa1)" style="fill: none; stroke: #000000; stroke-width: 1.5; stroke-linecap: round"/>
   </g>
   <g id="line2d_40">
    <path d="M 329.431 152.307 
L 358.231 152.307 
L 387.031 152.307 
" clip-path="url(#p43fc05ffa1)" style="fill: none; stroke: #000000; stroke-width: 1.5; stroke-linecap: round"/>
   </g>
   <g id="line2d_41">
    <path d="M 387.031 152.307 
L 423.391 152.307 
M 423.391 143.307 
L 423.391 161.307 
M 429.871 143.307 
L 429.871 161.307 
M 429.871 152.307 
L 466.231 152.307 
" clip-path="url(#p43fc05ffa1)" style="fill: none; stroke: #000000; stroke-width: 1.5; stroke-linecap: round"/>
   </g>
   <g id="line2d_42">
    <path d="M 457.231 171.807 
L 457.231 174.807 
" clip-path="url(#p43fc05ffa1)" style="fill: none; stroke: #000000; stroke-width: 1.5; stroke-linecap: round"/>
   </g>
   <g id="line2d_43">
    <path d="M 457.231 180.807 
L 457.231 183.807 
" clip-path="url(#p43fc05ffa1)" style="fill: none; stroke: #000000; stroke-width: 1.5; stroke-linecap: round"/>
   </g>
   <g id="line2d_44">
    <path d="M 457.231 189.807 
L 457.231 192.807 
" clip-path="url(#p43fc05ffa1)" style="fill: none; stroke: #000000; stroke-width: 1.5; stroke-linecap: round"/>
   </g>
   <g id="line2d_45">
    <path d="M 466.231 173.307 
L 466.231 152.307 
" clip-path="url(#p43fc05ffa1)" style="fill: none; stroke: #000000; stroke-width: 1.5; stroke-linecap: round"/>
   </g>
   <g id="line2d_46">
    <path d="M 457.231 173.307 
L 466.231 173.307 
" clip-path="url(#p43fc05ffa1)" style="fill: none; stroke: #000000; stroke-width: 1.5; stroke-linecap: round"/>
   </g>
   <g id="line2d_47">
    <path d="M 466.231 212.307 
L 466.231 191.307 
" clip-path="url(#p43fc05ffa1)" style="fill: none; stroke: #000000; stroke-width: 1.5; stroke-linecap: round"/>
   </g>
   <g id="line2d_48">
    <path d="M 457.231 191.307 
L 466.231 191.307 
" clip-path="url(#p43fc05ffa1)" style="fill: none; stroke: #000000; stroke-width: 1.5; stroke-linecap: round"/>
   </g>
   <g id="line2d_49">
    <path d="M 436.231 194.307 
L 451.231 194.307 
" clip-path="url(#p43fc05ffa1)" style="fill: none; stroke: #000000; stroke-width: 1.5; stroke-linecap: round"/>
   </g>
   <g id="line2d_50">
    <path d="M 451.231 194.307 
L 451.231 170.307 
" clip-path="url(#p43fc05ffa1)" style="fill: none; stroke: #000000; stroke-width: 1.5; stroke-linecap: round"/>
   </g>
   <g id="line2d_51">
    <path d="M 463.231 182.307 
L 466.231 182.307 
" clip-path="url(#p43fc05ffa1)" style="fill: none; stroke: #000000; stroke-width: 1.5; stroke-linecap: round"/>
   </g>
   <g id="patch_20">
    <path d="M 463.231 185.307 
L 457.231 182.307 
L 463.231 179.307 
z
" clip-path="url(#p43fc05ffa1)"/>
   </g>
   <g id="line2d_52">
    <path d="M 466.231 182.307 
L 466.231 191.307 
" clip-path="url(#p43fc05ffa1)" style="fill: none; stroke: #000000; stroke-width: 1.5; stroke-linecap: round"/>
   </g>
   <g id="line2d_53">
    <path d="M 466.231 212.307 
L 466.231 244.707 
L 466.231 277.107 
" clip-path="url(#p43fc05ffa1)" style="fill: none; stroke: #000000; stroke-width: 1.5; stroke-linecap: round"/>
   </g>
   <g id="line2d_54">
    <path d="M 466.231 277.107 
L 466.231 291.507 
L 457.231 291.507 
L 475.231 291.507 
M 459.931 295.827 
L 472.531 295.827 
M 464.431 300.147 
L 468.031 300.147 
" clip-path="url(#p43fc05ffa1)" style="fill: none; stroke: #000000; stroke-width: 1.5; stroke-linecap: round"/>
   </g>
   <g id="line2d_55">
    <path d="M 466.231 152.307 
L 466.231 116.307 
L 466.231 80.307 
" clip-path="url(#p43fc05ffa1)" style="fill: none; stroke: #000000; stroke-width: 1.5; stroke-linecap: round"/>
   </g>
   <g id="line2d_56">
    <path d="M 425.731 89.307 
L 428.731 89.307 
" clip-path="url(#p43fc05ffa1)" style="fill: none; stroke: #000000; stroke-width: 1.5; stroke-linecap: round"/>
   </g>
   <g id="line2d_57">
    <path d="M 434.731 89.307 
L 437.731 89.307 
" clip-path="url(#p43fc05ffa1)" style="fill: none; stroke: #000000; stroke-width: 1.5; stroke-linecap: round"/>
   </g>
   <g id="line2d_58">
    <path d="M 443.731 89.307 
L 446.731 89.307 
" clip-path="url(#p43fc05ffa1)" style="fill: none; stroke: #000000; stroke-width: 1.5; stroke-linecap: round"/>
   </g>
   <g id="line2d_59">
    <path d="M 427.231 80.307 
L 406.231 80.307 
" clip-path="url(#p43fc05ffa1)" style="fill: none; stroke: #000000; stroke-width: 1.5; stroke-linecap: round"/>
   </g>
   <g id="line2d_60">
    <path d="M 427.231 89.307 
L 427.231 80.307 
" clip-path="url(#p43fc05ffa1)" style="fill: none; stroke: #000000; stroke-width: 1.5; stroke-linecap: round"/>
   </g>
   <g id="line2d_61">
    <path d="M 466.231 80.307 
L 445.231 80.307 
" clip-path="url(#p43fc05ffa1)" style="fill: none; stroke: #000000; stroke-width: 1.5; stroke-linecap: round"/>
   </g>
   <g id="line2d_62">
    <path d="M 445.231 89.307 
L 445.231 80.307 
" clip-path="url(#p43fc05ffa1)" style="fill: none; stroke: #000000; stroke-width: 1.5; stroke-linecap: round"/>
   </g>
   <g id="line2d_63">
    <path d="M 448.231 110.307 
L 448.231 95.307 
" clip-path="url(#p43fc05ffa1)" style="fill: none; stroke: #000000; stroke-width: 1.5; stroke-linecap: round"/>
   </g>
   <g id="line2d_64">
    <path d="M 448.231 95.307 
L 424.231 95.307 
" clip-path="url(#p43fc05ffa1)" style="fill: none; stroke: #000000; stroke-width: 1.5; stroke-linecap: round"/>
   </g>
   <g id="line2d_65">
    <path d="M 436.231 83.307 
L 436.231 80.307 
" clip-path="url(#p43fc05ffa1)" style="fill: none; stroke: #000000; stroke-width: 1.5; stroke-linecap: round"/>
   </g>
   <g id="patch_21">
    <path d="M 439.231 83.307 
L 436.231 89.307 
L 433.231 83.307 
z
" clip-path="url(#p43fc05ffa1)"/>
   </g>
   <g id="line2d_66">
    <path d="M 436.231 80.307 
L 445.231 80.307 
" clip-path="url(#p43fc05ffa1)" style="fill: none; stroke: #000000; stroke-width: 1.5; stroke-linecap: round"/>
   </g>
   <g id="line2d_67">
    <path d="M 406.231 80.307 
L 445.831 80.307 
L 485.431 80.307 
" clip-path="url(#p43fc05ffa1)" style="fill: none; stroke: #000000; stroke-width: 1.5; stroke-linecap: round"/>
   </g>
   <g id="line2d_68">
    <path d="M 485.431 80.307 
L 485.431 65.907 
M 485.431 29.907 
L 485.431 15.507 
" clip-path="url(#p43fc05ffa1)" style="fill: none; stroke: #000000; stroke-width: 1.5; stroke-linecap: round"/>
   </g>
   <g id="line2d_69">
    <path d="M 485.431 80.307 
L 525.031 80.307 
L 564.631 80.307 
" clip-path="url(#p43fc05ffa1)" style="fill: none; stroke: #000000; stroke-width: 1.5; stroke-linecap: round"/>
   </g>
   <g id="line2d_70">
    <path d="M 564.631 80.307 
L 564.631 65.907 
L 555.631 62.907 
L 573.631 56.907 
L 555.631 50.907 
L 573.631 44.907 
L 555.631 38.907 
L 573.631 32.907 
L 564.631 29.907 
L 564.631 15.507 
" clip-path="url(#p43fc05ffa1)" style="fill: none; stroke: #000000; stroke-width: 1.5; stroke-linecap: round"/>
   </g>
   <g id="line2d_71">
    <path d="M 564.631 15.507 
L 564.631 29.907 
L 555.631 29.907 
L 573.631 29.907 
M 558.331 34.227 
L 570.931 34.227 
M 562.831 38.547 
L 566.431 38.547 
" clip-path="url(#p43fc05ffa1)" style="fill: none; stroke: #000000; stroke-width: 1.5; stroke-linecap: round"/>
   </g>
   <g id="line2d_72">
    <path d="M 564.631 80.307 
L 593.431 80.307 
L 622.231 80.307 
" clip-path="url(#p43fc05ffa1)" style="fill: none; stroke: #000000; stroke-width: 1.5; stroke-linecap: round"/>
   </g>
   <g id="line2d_73">
    <path d="M 622.231 80.307 
L 658.591 80.307 
M 658.591 71.307 
L 658.591 89.307 
M 665.071 71.307 
L 665.071 89.307 
M 665.071 80.307 
L 701.431 80.307 
" clip-path="url(#p43fc05ffa1)" style="fill: none; stroke: #000000; stroke-width: 1.5; stroke-linecap: round"/>
   </g>
   <g id="text_1">
    <!-- C5 -->
    <g style="fill: #30363a" transform="translate(30.491078 207.210828) scale(0.11 -0.11)">
     <defs>
      <path id="DejaVuSans-26" d="M 4122 4306 
L 4122 3641 
Q 3803 3938 3442 4084 
Q 3081 4231 2675 4231 
Q 1875 4231 1450 3742 
Q 1025 3253 1025 2328 
Q 1025 1406 1450 917 
Q 1875 428 2675 428 
Q 3081 428 3442 575 
Q 3803 722 4122 1019 
L 4122 359 
Q 3791 134 3420 21 
Q 3050 -91 2638 -91 
Q 1578 -91 968 557 
Q 359 1206 359 2328 
Q 359 3453 968 4101 
Q 1578 4750 2638 4750 
Q 3056 4750 3426 4639 
Q 3797 4528 4122 4306 
z
" transform="scale(0.015625)"/>
      <path id="DejaVuSans-18" d="M 691 4666 
L 3169 4666 
L 3169 4134 
L 1269 4134 
L 1269 2991 
Q 1406 3038 1543 3061 
Q 1681 3084 1819 3084 
Q 2600 3084 3056 2656 
Q 3513 2228 3513 1497 
Q 3513 744 3044 326 
Q 2575 -91 1722 -91 
Q 1428 -91 1123 -41 
Q 819 9 494 109 
L 494 744 
Q 775 591 1075 516 
Q 1375 441 1709 441 
Q 2250 441 2565 725 
Q 2881 1009 2881 1497 
Q 2881 1984 2565 2268 
Q 2250 2553 1709 2553 
Q 1456 2553 1204 2497 
Q 953 2441 691 2322 
L 691 4666 
z
" transform="scale(0.015625)"/>
     </defs>
     <use xlink:href="#DejaVuSans-26"/>
     <use xlink:href="#DejaVuSans-18" transform="translate(69.828125 0)"/>
    </g>
   </g>
   <g id="text_2">
    <!-- LIN/RLIN -->
    <g style="fill: #30363a" transform="translate(54.153109 202.206397) scale(0.11 -0.11)">
     <defs>
      <path id="DejaVuSans-2f" d="M 628 4666 
L 1259 4666 
L 1259 531 
L 3531 531 
L 3531 0 
L 628 0 
L 628 4666 
z
" transform="scale(0.015625)"/>
      <path id="DejaVuSans-2c" d="M 628 4666 
L 1259 4666 
L 1259 0 
L 628 0 
L 628 4666 
z
" transform="scale(0.015625)"/>
      <path id="DejaVuSans-31" d="M 628 4666 
L 1478 4666 
L 3547 763 
L 3547 4666 
L 4159 4666 
L 4159 0 
L 3309 0 
L 1241 3903 
L 1241 0 
L 628 0 
L 628 4666 
z
" transform="scale(0.015625)"/>
      <path id="DejaVuSans-12" d="M 1625 4666 
L 2156 4666 
L 531 -594 
L 0 -594 
L 1625 4666 
z
" transform="scale(0.015625)"/>
      <path id="DejaVuSans-35" d="M 2841 2188 
Q 3044 2119 3236 1894 
Q 3428 1669 3622 1275 
L 4263 0 
L 3584 0 
L 2988 1197 
Q 2756 1666 2539 1819 
Q 2322 1972 1947 1972 
L 1259 1972 
L 1259 0 
L 628 0 
L 628 4666 
L 2053 4666 
Q 2853 4666 3247 4331 
Q 3641 3997 3641 3322 
Q 3641 2881 3436 2590 
Q 3231 2300 2841 2188 
z
M 1259 4147 
L 1259 2491 
L 2053 2491 
Q 2509 2491 2742 2702 
Q 2975 2913 2975 3322 
Q 2975 3731 2742 3939 
Q 2509 4147 2053 4147 
L 1259 4147 
z
" transform="scale(0.015625)"/>
     </defs>
     <use xlink:href="#DejaVuSans-2f"/>
     <use xlink:href="#DejaVuSans-2c" transform="translate(55.71875 0)"/>
     <use xlink:href="#DejaVuSans-31" transform="translate(85.21875 0)"/>
     <use xlink:href="#DejaVuSans-12" transform="translate(160.03125 0)"/>
     <use xlink:href="#DejaVuSans-35" transform="translate(193.71875 0)"/>
     <use xlink:href="#DejaVuSans-2f" transform="translate(263.203125 0)"/>
     <use xlink:href="#DejaVuSans-2c" transform="translate(318.921875 0)"/>
     <use xlink:href="#DejaVuSans-31" transform="translate(348.421875 0)"/>
    </g>
   </g>
   <g id="text_3">
    <!-- C2 -->
    <g style="fill: #1a7a4c" transform="translate(149.291078 198.210828) scale(0.11 -0.11)">
     <defs>
      <path id="DejaVuSans-15" d="M 1228 531 
L 3431 531 
L 3431 0 
L 469 0 
L 469 531 
Q 828 903 1448 1529 
Q 2069 2156 2228 2338 
Q 2531 2678 2651 2914 
Q 2772 3150 2772 3378 
Q 2772 3750 2511 3984 
Q 2250 4219 1831 4219 
Q 1534 4219 1204 4116 
Q 875 4013 500 3803 
L 500 4441 
Q 881 4594 1212 4672 
Q 1544 4750 1819 4750 
Q 2544 4750 2975 4387 
Q 3406 4025 3406 3419 
Q 3406 3131 3298 2873 
Q 3191 2616 2906 2266 
Q 2828 2175 2409 1742 
Q 1991 1309 1228 531 
z
" transform="scale(0.015625)"/>
     </defs>
     <use xlink:href="#DejaVuSans-26"/>
     <use xlink:href="#DejaVuSans-15" transform="translate(69.828125 0)"/>
    </g>
   </g>
   <g id="text_4">
    <!-- M2 (CG) -->
    <g style="fill: #30363a" transform="translate(158.844281 224.854813) scale(0.11 -0.11)">
     <defs>
      <path id="DejaVuSans-30" d="M 628 4666 
L 1569 4666 
L 2759 1491 
L 3956 4666 
L 4897 4666 
L 4897 0 
L 4281 0 
L 4281 4097 
L 3078 897 
L 2444 897 
L 1241 4097 
L 1241 0 
L 628 0 
L 628 4666 
z
" transform="scale(0.015625)"/>
      <path id="DejaVuSans-3" transform="scale(0.015625)"/>
      <path id="DejaVuSans-b" d="M 1984 4856 
Q 1566 4138 1362 3434 
Q 1159 2731 1159 2009 
Q 1159 1288 1364 580 
Q 1569 -128 1984 -844 
L 1484 -844 
Q 1016 -109 783 600 
Q 550 1309 550 2009 
Q 550 2706 781 3412 
Q 1013 4119 1484 4856 
L 1984 4856 
z
" transform="scale(0.015625)"/>
      <path id="DejaVuSans-2a" d="M 3809 666 
L 3809 1919 
L 2778 1919 
L 2778 2438 
L 4434 2438 
L 4434 434 
Q 4069 175 3628 42 
Q 3188 -91 2688 -91 
Q 1594 -91 976 548 
Q 359 1188 359 2328 
Q 359 3472 976 4111 
Q 1594 4750 2688 4750 
Q 3144 4750 3555 4637 
Q 3966 4525 4313 4306 
L 4313 3634 
Q 3963 3931 3569 4081 
Q 3175 4231 2741 4231 
Q 1884 4231 1454 3753 
Q 1025 3275 1025 2328 
Q 1025 1384 1454 906 
Q 1884 428 2741 428 
Q 3075 428 3337 486 
Q 3600 544 3809 666 
z
" transform="scale(0.015625)"/>
      <path id="DejaVuSans-c" d="M 513 4856 
L 1013 4856 
Q 1481 4119 1714 3412 
Q 1947 2706 1947 2009 
Q 1947 1309 1714 600 
Q 1481 -109 1013 -844 
L 513 -844 
Q 928 -128 1133 580 
Q 1338 1288 1338 2009 
Q 1338 2731 1133 3434 
Q 928 4138 513 4856 
z
" transform="scale(0.015625)"/>
     </defs>
     <use xlink:href="#DejaVuSans-30"/>
     <use xlink:href="#DejaVuSans-15" transform="translate(86.28125 0)"/>
     <use xlink:href="#DejaVuSans-3" transform="translate(149.90625 0)"/>
     <use xlink:href="#DejaVuSans-b" transform="translate(181.6875 0)"/>
     <use xlink:href="#DejaVuSans-26" transform="translate(220.703125 0)"/>
     <use xlink:href="#DejaVuSans-2a" transform="translate(290.53125 0)"/>
     <use xlink:href="#DejaVuSans-c" transform="translate(368.015625 0)"/>
    </g>
   </g>
   <g id="text_5">
    <!-- M5 (removed) -->
    <g style="fill: #b3392f" transform="translate(127.568578 289.660828) scale(0.11 -0.11)">
     <defs>
      <path id="DejaVuSans-55" d="M 2631 2963 
Q 2534 3019 2420 3045 
Q 2306 3072 2169 3072 
Q 1681 3072 1420 2755 
Q 1159 2438 1159 1844 
L 1159 0 
L 581 0 
L 581 3500 
L 1159 3500 
L 1159 2956 
Q 1341 3275 1631 3429 
Q 1922 3584 2338 3584 
Q 2397 3584 2469 3576 
Q 2541 3569 2628 3553 
L 2631 2963 
z
" transform="scale(0.015625)"/>
      <path id="DejaVuSans-48" d="M 3597 1894 
L 3597 1613 
L 953 1613 
Q 991 1019 1311 708 
Q 1631 397 2203 397 
Q 2534 397 2845 478 
Q 3156 559 3463 722 
L 3463 178 
Q 3153 47 2828 -22 
Q 2503 -91 2169 -91 
Q 1331 -91 842 396 
Q 353 884 353 1716 
Q 353 2575 817 3079 
Q 1281 3584 2069 3584 
Q 2775 3584 3186 3129 
Q 3597 2675 3597 1894 
z
M 3022 2063 
Q 3016 2534 2758 2815 
Q 2500 3097 2075 3097 
Q 1594 3097 1305 2825 
Q 1016 2553 972 2059 
L 3022 2063 
z
" transform="scale(0.015625)"/>
      <path id="DejaVuSans-50" d="M 3328 2828 
Q 3544 3216 3844 3400 
Q 4144 3584 4550 3584 
Q 5097 3584 5394 3201 
Q 5691 2819 5691 2113 
L 5691 0 
L 5113 0 
L 5113 2094 
Q 5113 2597 4934 2840 
Q 4756 3084 4391 3084 
Q 3944 3084 3684 2787 
Q 3425 2491 3425 1978 
L 3425 0 
L 2847 0 
L 2847 2094 
Q 2847 2600 2669 2842 
Q 2491 3084 2119 3084 
Q 1678 3084 1418 2786 
Q 1159 2488 1159 1978 
L 1159 0 
L 581 0 
L 581 3500 
L 1159 3500 
L 1159 2956 
Q 1356 3278 1631 3431 
Q 1906 3584 2284 3584 
Q 2666 3584 2933 3390 
Q 3200 3197 3328 2828 
z
" transform="scale(0.015625)"/>
      <path id="DejaVuSans-52" d="M 1959 3097 
Q 1497 3097 1228 2736 
Q 959 2375 959 1747 
Q 959 1119 1226 758 
Q 1494 397 1959 397 
Q 2419 397 2687 759 
Q 2956 1122 2956 1747 
Q 2956 2369 2687 2733 
Q 2419 3097 1959 3097 
z
M 1959 3584 
Q 2709 3584 3137 3096 
Q 3566 2609 3566 1747 
Q 3566 888 3137 398 
Q 2709 -91 1959 -91 
Q 1206 -91 779 398 
Q 353 888 353 1747 
Q 353 2609 779 3096 
Q 1206 3584 1959 3584 
z
" transform="scale(0.015625)"/>
      <path id="DejaVuSans-59" d="M 191 3500 
L 800 3500 
L 1894 563 
L 2988 3500 
L 3597 3500 
L 2284 0 
L 1503 0 
L 191 3500 
z
" transform="scale(0.015625)"/>
      <path id="DejaVuSans-47" d="M 2906 2969 
L 2906 4863 
L 3481 4863 
L 3481 0 
L 2906 0 
L 2906 525 
Q 2725 213 2448 61 
Q 2172 -91 1784 -91 
Q 1150 -91 751 415 
Q 353 922 353 1747 
Q 353 2572 751 3078 
Q 1150 3584 1784 3584 
Q 2172 3584 2448 3432 
Q 2725 3281 2906 2969 
z
M 947 1747 
Q 947 1113 1208 752 
Q 1469 391 1925 391 
Q 2381 391 2643 752 
Q 2906 1113 2906 1747 
Q 2906 2381 2643 2742 
Q 2381 3103 1925 3103 
Q 1469 3103 1208 2742 
Q 947 2381 947 1747 
z
" transform="scale(0.015625)"/>
     </defs>
     <use xlink:href="#DejaVuSans-30"/>
     <use xlink:href="#DejaVuSans-18" transform="translate(86.28125 0)"/>
     <use xlink:href="#DejaVuSans-3" transform="translate(149.90625 0)"/>
     <use xlink:href="#DejaVuSans-b" transform="translate(181.6875 0)"/>
     <use xlink:href="#DejaVuSans-55" transform="translate(220.703125 0)"/>
     <use xlink:href="#DejaVuSans-48" transform="translate(259.609375 0)"/>
     <use xlink:href="#DejaVuSans-50" transform="translate(321.140625 0)"/>
     <use xlink:href="#DejaVuSans-52" transform="translate(418.546875 0)"/>
     <use xlink:href="#DejaVuSans-59" transform="translate(479.734375 0)"/>
     <use xlink:href="#DejaVuSans-48" transform="translate(538.921875 0)"/>
     <use xlink:href="#DejaVuSans-47" transform="translate(600.453125 0)"/>
     <use xlink:href="#DejaVuSans-c" transform="translate(663.9375 0)"/>
    </g>
   </g>
   <g id="text_6">
    <!-- LDEG (added) -->
    <g style="fill: #2563eb" transform="translate(80.975208 206.660828) scale(0.11 -0.11)">
     <defs>
      <path id="DejaVuSans-27" d="M 1259 4147 
L 1259 519 
L 2022 519 
Q 2988 519 3436 956 
Q 3884 1394 3884 2338 
Q 3884 3275 3436 3711 
Q 2988 4147 2022 4147 
L 1259 4147 
z
M 628 4666 
L 1925 4666 
Q 3281 4666 3915 4102 
Q 4550 3538 4550 2338 
Q 4550 1131 3912 565 
Q 3275 0 1925 0 
L 628 0 
L 628 4666 
z
" transform="scale(0.015625)"/>
      <path id="DejaVuSans-28" d="M 628 4666 
L 3578 4666 
L 3578 4134 
L 1259 4134 
L 1259 2753 
L 3481 2753 
L 3481 2222 
L 1259 2222 
L 1259 531 
L 3634 531 
L 3634 0 
L 628 0 
L 628 4666 
z
" transform="scale(0.015625)"/>
      <path id="DejaVuSans-44" d="M 2194 1759 
Q 1497 1759 1228 1600 
Q 959 1441 959 1056 
Q 959 750 1161 570 
Q 1363 391 1709 391 
Q 2188 391 2477 730 
Q 2766 1069 2766 1631 
L 2766 1759 
L 2194 1759 
z
M 3341 1997 
L 3341 0 
L 2766 0 
L 2766 531 
Q 2569 213 2275 61 
Q 1981 -91 1556 -91 
Q 1019 -91 701 211 
Q 384 513 384 1019 
Q 384 1609 779 1909 
Q 1175 2209 1959 2209 
L 2766 2209 
L 2766 2266 
Q 2766 2663 2505 2880 
Q 2244 3097 1772 3097 
Q 1472 3097 1187 3025 
Q 903 2953 641 2809 
L 641 3341 
Q 956 3463 1253 3523 
Q 1550 3584 1831 3584 
Q 2591 3584 2966 3190 
Q 3341 2797 3341 1997 
z
" transform="scale(0.015625)"/>
     </defs>
     <use xlink:href="#DejaVuSans-2f"/>
     <use xlink:href="#DejaVuSans-27" transform="translate(55.71875 0)"/>
     <use xlink:href="#DejaVuSans-28" transform="translate(132.71875 0)"/>
     <use xlink:href="#DejaVuSans-2a" transform="translate(195.90625 0)"/>
     <use xlink:href="#DejaVuSans-3" transform="translate(273.390625 0)"/>
     <use xlink:href="#DejaVuSans-b" transform="translate(305.171875 0)"/>
     <use xlink:href="#DejaVuSans-44" transform="translate(344.1875 0)"/>
     <use xlink:href="#DejaVuSans-47" transform="translate(405.46875 0)"/>
     <use xlink:href="#DejaVuSans-47" transform="translate(468.953125 0)"/>
     <use xlink:href="#DejaVuSans-48" transform="translate(532.4375 0)"/>
     <use xlink:href="#DejaVuSans-47" transform="translate(593.96875 0)"/>
     <use xlink:href="#DejaVuSans-c" transform="translate(657.453125 0)"/>
    </g>
   </g>
   <g id="text_7">
    <!-- LD4 -->
    <g style="fill: #30363a" transform="translate(229.982105 165.416844) scale(0.11 -0.11)">
     <defs>
      <path id="DejaVuSans-17" d="M 2419 4116 
L 825 1625 
L 2419 1625 
L 2419 4116 
z
M 2253 4666 
L 3047 4666 
L 3047 1625 
L 3713 1625 
L 3713 1100 
L 3047 1100 
L 3047 0 
L 2419 0 
L 2419 1100 
L 313 1100 
L 313 1709 
L 2253 4666 
z
" transform="scale(0.015625)"/>
     </defs>
     <use xlink:href="#DejaVuSans-2f"/>
     <use xlink:href="#DejaVuSans-27" transform="translate(55.71875 0)"/>
     <use xlink:href="#DejaVuSans-17" transform="translate(132.71875 0)"/>
    </g>
   </g>
   <g id="text_8">
    <!-- RLD3 -->
    <g style="fill: #1a7a4c" transform="translate(228.410453 118.610828) scale(0.11 -0.11)">
     <defs>
      <path id="DejaVuSans-16" d="M 2597 2516 
Q 3050 2419 3304 2112 
Q 3559 1806 3559 1356 
Q 3559 666 3084 287 
Q 2609 -91 1734 -91 
Q 1441 -91 1130 -33 
Q 819 25 488 141 
L 488 750 
Q 750 597 1062 519 
Q 1375 441 1716 441 
Q 2309 441 2620 675 
Q 2931 909 2931 1356 
Q 2931 1769 2642 2001 
Q 2353 2234 1838 2234 
L 1294 2234 
L 1294 2753 
L 1863 2753 
Q 2328 2753 2575 2939 
Q 2822 3125 2822 3475 
Q 2822 3834 2567 4026 
Q 2313 4219 1838 4219 
Q 1578 4219 1281 4162 
Q 984 4106 628 3988 
L 628 4550 
Q 988 4650 1302 4700 
Q 1616 4750 1894 4750 
Q 2613 4750 3031 4423 
Q 3450 4097 3450 3541 
Q 3450 3153 3228 2886 
Q 3006 2619 2597 2516 
z
" transform="scale(0.015625)"/>
     </defs>
     <use xlink:href="#DejaVuSans-35"/>
     <use xlink:href="#DejaVuSans-2f" transform="translate(69.484375 0)"/>
     <use xlink:href="#DejaVuSans-27" transform="translate(125.203125 0)"/>
     <use xlink:href="#DejaVuSans-16" transform="translate(202.203125 0)"/>
    </g>
   </g>
   <g id="text_9">
    <!-- CTUNE_M2 (new) -->
    <g style="fill: #2563eb" transform="translate(282.2135 52.483328) scale(0.11 -0.11)">
     <defs>
      <path id="DejaVuSans-37" d="M -19 4666 
L 3928 4666 
L 3928 4134 
L 2272 4134 
L 2272 0 
L 1638 0 
L 1638 4134 
L -19 4134 
L -19 4666 
z
" transform="scale(0.015625)"/>
      <path id="DejaVuSans-38" d="M 556 4666 
L 1191 4666 
L 1191 1831 
Q 1191 1081 1462 751 
Q 1734 422 2344 422 
Q 2950 422 3222 751 
Q 3494 1081 3494 1831 
L 3494 4666 
L 4128 4666 
L 4128 1753 
Q 4128 841 3676 375 
Q 3225 -91 2344 -91 
Q 1459 -91 1007 375 
Q 556 841 556 1753 
L 556 4666 
z
" transform="scale(0.015625)"/>
      <path id="DejaVuSans-42" d="M 3263 -1063 
L 3263 -1509 
L -63 -1509 
L -63 -1063 
L 3263 -1063 
z
" transform="scale(0.015625)"/>
      <path id="DejaVuSans-51" d="M 3513 2113 
L 3513 0 
L 2938 0 
L 2938 2094 
Q 2938 2591 2744 2837 
Q 2550 3084 2163 3084 
Q 1697 3084 1428 2787 
Q 1159 2491 1159 1978 
L 1159 0 
L 581 0 
L 581 3500 
L 1159 3500 
L 1159 2956 
Q 1366 3272 1645 3428 
Q 1925 3584 2291 3584 
Q 2894 3584 3203 3211 
Q 3513 2838 3513 2113 
z
" transform="scale(0.015625)"/>
      <path id="DejaVuSans-5a" d="M 269 3500 
L 844 3500 
L 1563 769 
L 2278 3500 
L 2956 3500 
L 3675 769 
L 4391 3500 
L 4966 3500 
L 4050 0 
L 3372 0 
L 2619 2869 
L 1863 0 
L 1184 0 
L 269 3500 
z
" transform="scale(0.015625)"/>
     </defs>
     <use xlink:href="#DejaVuSans-26"/>
     <use xlink:href="#DejaVuSans-37" transform="translate(69.828125 0)"/>
     <use xlink:href="#DejaVuSans-38" transform="translate(130.90625 0)"/>
     <use xlink:href="#DejaVuSans-31" transform="translate(204.09375 0)"/>
     <use xlink:href="#DejaVuSans-28" transform="translate(278.90625 0)"/>
     <use xlink:href="#DejaVuSans-42" transform="translate(342.09375 0)"/>
     <use xlink:href="#DejaVuSans-30" transform="translate(392.09375 0)"/>
     <use xlink:href="#DejaVuSans-15" transform="translate(478.375 0)"/>
     <use xlink:href="#DejaVuSans-3" transform="translate(542 0)"/>
     <use xlink:href="#DejaVuSans-b" transform="translate(573.78125 0)"/>
     <use xlink:href="#DejaVuSans-51" transform="translate(612.796875 0)"/>
     <use xlink:href="#DejaVuSans-48" transform="translate(676.171875 0)"/>
     <use xlink:href="#DejaVuSans-5a" transform="translate(737.703125 0)"/>
     <use xlink:href="#DejaVuSans-c" transform="translate(819.484375 0)"/>
    </g>
   </g>
   <g id="text_10">
    <!-- C1 -->
    <g style="fill: #30363a" transform="translate(419.291078 138.210828) scale(0.11 -0.11)">
     <defs>
      <path id="DejaVuSans-14" d="M 794 531 
L 1825 531 
L 1825 4091 
L 703 3866 
L 703 4441 
L 1819 4666 
L 2450 4666 
L 2450 531 
L 3481 531 
L 3481 0 
L 794 0 
L 794 531 
z
" transform="scale(0.015625)"/>
     </defs>
     <use xlink:href="#DejaVuSans-26"/>
     <use xlink:href="#DejaVuSans-14" transform="translate(69.828125 0)"/>
    </g>
   </g>
   <g id="text_11">
    <!-- M1 (CS) -->
    <g style="fill: #30363a" transform="translate(429.614281 224.854813) scale(0.11 -0.11)">
     <defs>
      <path id="DejaVuSans-36" d="M 3425 4513 
L 3425 3897 
Q 3066 4069 2747 4153 
Q 2428 4238 2131 4238 
Q 1616 4238 1336 4038 
Q 1056 3838 1056 3469 
Q 1056 3159 1242 3001 
Q 1428 2844 1947 2747 
L 2328 2669 
Q 3034 2534 3370 2195 
Q 3706 1856 3706 1288 
Q 3706 609 3251 259 
Q 2797 -91 1919 -91 
Q 1588 -91 1214 -16 
Q 841 59 441 206 
L 441 856 
Q 825 641 1194 531 
Q 1563 422 1919 422 
Q 2459 422 2753 634 
Q 3047 847 3047 1241 
Q 3047 1584 2836 1778 
Q 2625 1972 2144 2069 
L 1759 2144 
Q 1053 2284 737 2584 
Q 422 2884 422 3419 
Q 422 4038 858 4394 
Q 1294 4750 2059 4750 
Q 2388 4750 2728 4690 
Q 3069 4631 3425 4513 
z
" transform="scale(0.015625)"/>
     </defs>
     <use xlink:href="#DejaVuSans-30"/>
     <use xlink:href="#DejaVuSans-14" transform="translate(86.28125 0)"/>
     <use xlink:href="#DejaVuSans-3" transform="translate(149.90625 0)"/>
     <use xlink:href="#DejaVuSans-b" transform="translate(181.6875 0)"/>
     <use xlink:href="#DejaVuSans-26" transform="translate(220.703125 0)"/>
     <use xlink:href="#DejaVuSans-36" transform="translate(290.53125 0)"/>
     <use xlink:href="#DejaVuSans-c" transform="translate(354.015625 0)"/>
    </g>
   </g>
   <g id="text_12">
    <!-- M4 (cascode) -->
    <g style="fill: #30363a" transform="translate(399.421391 122.860828) scale(0.11 -0.11)">
     <defs>
      <path id="DejaVuSans-46" d="M 3122 3366 
L 3122 2828 
Q 2878 2963 2633 3030 
Q 2388 3097 2138 3097 
Q 1578 3097 1268 2742 
Q 959 2388 959 1747 
Q 959 1106 1268 751 
Q 1578 397 2138 397 
Q 2388 397 2633 464 
Q 2878 531 3122 666 
L 3122 134 
Q 2881 22 2623 -34 
Q 2366 -91 2075 -91 
Q 1284 -91 818 406 
Q 353 903 353 1747 
Q 353 2603 823 3093 
Q 1294 3584 2113 3584 
Q 2378 3584 2631 3529 
Q 2884 3475 3122 3366 
z
" transform="scale(0.015625)"/>
      <path id="DejaVuSans-56" d="M 2834 3397 
L 2834 2853 
Q 2591 2978 2328 3040 
Q 2066 3103 1784 3103 
Q 1356 3103 1142 2972 
Q 928 2841 928 2578 
Q 928 2378 1081 2264 
Q 1234 2150 1697 2047 
L 1894 2003 
Q 2506 1872 2764 1633 
Q 3022 1394 3022 966 
Q 3022 478 2636 193 
Q 2250 -91 1575 -91 
Q 1294 -91 989 -36 
Q 684 19 347 128 
L 347 722 
Q 666 556 975 473 
Q 1284 391 1588 391 
Q 1994 391 2212 530 
Q 2431 669 2431 922 
Q 2431 1156 2273 1281 
Q 2116 1406 1581 1522 
L 1381 1569 
Q 847 1681 609 1914 
Q 372 2147 372 2553 
Q 372 3047 722 3315 
Q 1072 3584 1716 3584 
Q 2034 3584 2315 3537 
Q 2597 3491 2834 3397 
z
" transform="scale(0.015625)"/>
     </defs>
     <use xlink:href="#DejaVuSans-30"/>
     <use xlink:href="#DejaVuSans-17" transform="translate(86.28125 0)"/>
     <use xlink:href="#DejaVuSans-3" transform="translate(149.90625 0)"/>
     <use xlink:href="#DejaVuSans-b" transform="translate(181.6875 0)"/>
     <use xlink:href="#DejaVuSans-46" transform="translate(220.703125 0)"/>
     <use xlink:href="#DejaVuSans-44" transform="translate(275.6875 0)"/>
     <use xlink:href="#DejaVuSans-56" transform="translate(336.96875 0)"/>
     <use xlink:href="#DejaVuSans-46" transform="translate(389.0625 0)"/>
     <use xlink:href="#DejaVuSans-52" transform="translate(444.046875 0)"/>
     <use xlink:href="#DejaVuSans-47" transform="translate(505.234375 0)"/>
     <use xlink:href="#DejaVuSans-48" transform="translate(568.71875 0)"/>
     <use xlink:href="#DejaVuSans-c" transform="translate(630.25 0)"/>
    </g>
   </g>
   <g id="text_13">
    <!-- LD2 -->
    <g style="fill: #30363a" transform="translate(472.382105 93.489031) scale(0.11 -0.11)">
     <use xlink:href="#DejaVuSans-2f"/>
     <use xlink:href="#DejaVuSans-27" transform="translate(55.71875 0)"/>
     <use xlink:href="#DejaVuSans-15" transform="translate(132.71875 0)"/>
    </g>
   </g>
   <g id="text_14">
    <!-- RLD2 -->
    <g style="fill: #1a7a4c" transform="translate(550.010453 10.489031) scale(0.11 -0.11)">
     <use xlink:href="#DejaVuSans-35"/>
     <use xlink:href="#DejaVuSans-2f" transform="translate(69.484375 0)"/>
     <use xlink:href="#DejaVuSans-27" transform="translate(125.203125 0)"/>
     <use xlink:href="#DejaVuSans-15" transform="translate(202.203125 0)"/>
    </g>
   </g>
   <g id="text_15">
    <!-- C11 (L-match) -->
    <g style="fill: #1a7a4c" transform="translate(622.605688 65.660828) scale(0.11 -0.11)">
     <defs>
      <path id="DejaVuSans-10" d="M 313 2009 
L 1997 2009 
L 1997 1497 
L 313 1497 
L 313 2009 
z
" transform="scale(0.015625)"/>
      <path id="DejaVuSans-57" d="M 1172 4494 
L 1172 3500 
L 2356 3500 
L 2356 3053 
L 1172 3053 
L 1172 1153 
Q 1172 725 1289 603 
Q 1406 481 1766 481 
L 2356 481 
L 2356 0 
L 1766 0 
Q 1100 0 847 248 
Q 594 497 594 1153 
L 594 3053 
L 172 3053 
L 172 3500 
L 594 3500 
L 594 4494 
L 1172 4494 
z
" transform="scale(0.015625)"/>
      <path id="DejaVuSans-4b" d="M 3513 2113 
L 3513 0 
L 2938 0 
L 2938 2094 
Q 2938 2591 2744 2837 
Q 2550 3084 2163 3084 
Q 1697 3084 1428 2787 
Q 1159 2491 1159 1978 
L 1159 0 
L 581 0 
L 581 4863 
L 1159 4863 
L 1159 2956 
Q 1366 3272 1645 3428 
Q 1925 3584 2291 3584 
Q 2894 3584 3203 3211 
Q 3513 2838 3513 2113 
z
" transform="scale(0.015625)"/>
     </defs>
     <use xlink:href="#DejaVuSans-26"/>
     <use xlink:href="#DejaVuSans-14" transform="translate(69.828125 0)"/>
     <use xlink:href="#DejaVuSans-14" transform="translate(133.453125 0)"/>
     <use xlink:href="#DejaVuSans-3" transform="translate(197.078125 0)"/>
     <use xlink:href="#DejaVuSans-b" transform="translate(228.859375 0)"/>
     <use xlink:href="#DejaVuSans-2f" transform="translate(267.875 0)"/>
     <use xlink:href="#DejaVuSans-10" transform="translate(321.84375 0)"/>
     <use xlink:href="#DejaVuSans-50" transform="translate(357.921875 0)"/>
     <use xlink:href="#DejaVuSans-44" transform="translate(455.328125 0)"/>
     <use xlink:href="#DejaVuSans-57" transform="translate(516.609375 0)"/>
     <use xlink:href="#DejaVuSans-46" transform="translate(555.8125 0)"/>
     <use xlink:href="#DejaVuSans-4b" transform="translate(610.796875 0)"/>
     <use xlink:href="#DejaVuSans-c" transform="translate(674.171875 0)"/>
    </g>
   </g>
   <g id="patch_22">
    <path d="M 37.831 215.007 
C 38.547048 215.007 39.233866 214.722511 39.740188 214.216188 
C 40.246511 213.709866 40.531 213.023048 40.531 212.307 
C 40.531 211.590952 40.246511 210.904134 39.740188 210.397812 
C 39.233866 209.891489 38.547048 209.607 37.831 209.607 
C 37.114952 209.607 36.428134 209.891489 35.921812 210.397812 
C 35.415489 210.904134 35.131 211.590952 35.131 212.307 
C 35.131 213.023048 35.415489 213.709866 35.921812 214.216188 
C 36.428134 214.722511 37.114952 215.007 37.831 215.007 
z
" clip-path="url(#p43fc05ffa1)" style="stroke: #000000; stroke-width: 1.5; stroke-linejoin: miter"/>
   </g>
   <g id="text_16">
    <!-- RF_IN -->
    <g transform="translate(0.586625 215.020047) scale(0.11 -0.11)">
     <defs>
      <path id="DejaVuSans-29" d="M 628 4666 
L 3309 4666 
L 3309 4134 
L 1259 4134 
L 1259 2759 
L 3109 2759 
L 3109 2228 
L 1259 2228 
L 1259 0 
L 628 0 
L 628 4666 
z
" transform="scale(0.015625)"/>
     </defs>
     <use xlink:href="#DejaVuSans-35"/>
     <use xlink:href="#DejaVuSans-29" transform="translate(69.484375 0)"/>
     <use xlink:href="#DejaVuSans-42" transform="translate(127 0)"/>
     <use xlink:href="#DejaVuSans-2c" transform="translate(177 0)"/>
     <use xlink:href="#DejaVuSans-31" transform="translate(206.5 0)"/>
    </g>
   </g>
   <g id="patch_23">
    <path d="M 37.831 215.007 
C 38.547048 215.007 39.233866 214.722511 39.740188 214.216188 
C 40.246511 213.709866 40.531 213.023048 40.531 212.307 
C 40.531 211.590952 40.246511 210.904134 39.740188 210.397812 
C 39.233866 209.891489 38.547048 209.607 37.831 209.607 
C 37.114952 209.607 36.428134 209.891489 35.921812 210.397812 
C 35.415489 210.904134 35.131 211.590952 35.131 212.307 
C 35.131 213.023048 35.415489 213.709866 35.921812 214.216188 
C 36.428134 214.722511 37.114952 215.007 37.831 215.007 
z
" clip-path="url(#p43fc05ffa1)" style="stroke: #000000; stroke-width: 1.5; stroke-linejoin: miter"/>
   </g>
   <g id="patch_24">
    <path d="M 243.031 155.007 
C 243.747048 155.007 244.433866 154.722511 244.940188 154.216188 
C 245.446511 153.709866 245.731 153.023048 245.731 152.307 
C 245.731 151.590952 245.446511 150.904134 244.940188 150.397812 
C 244.433866 149.891489 243.747048 149.607 243.031 149.607 
C 242.314952 149.607 241.628134 149.891489 241.121812 150.397812 
C 240.615489 150.904134 240.331 151.590952 240.331 152.307 
C 240.331 153.023048 240.615489 153.709866 241.121812 154.216188 
C 241.628134 154.722511 242.314952 155.007 243.031 155.007 
z
" clip-path="url(#p43fc05ffa1)" style="stroke: #000000; stroke-width: 1.5; stroke-linejoin: miter"/>
   </g>
   <g id="patch_25">
    <path d="M 329.431 155.007 
C 330.147048 155.007 330.833866 154.722511 331.340188 154.216188 
C 331.846511 153.709866 332.131 153.023048 332.131 152.307 
C 332.131 151.590952 331.846511 150.904134 331.340188 150.397812 
C 330.833866 149.891489 330.147048 149.607 329.431 149.607 
C 328.714952 149.607 328.028134 149.891489 327.521812 150.397812 
C 327.015489 150.904134 326.731 151.590952 326.731 152.307 
C 326.731 153.023048 327.015489 153.709866 327.521812 154.216188 
C 328.028134 154.722511 328.714952 155.007 329.431 155.007 
z
" clip-path="url(#p43fc05ffa1)" style="stroke: #000000; stroke-width: 1.5; stroke-linejoin: miter"/>
   </g>
   <g id="patch_26">
    <path d="M 485.431 83.007 
C 486.147048 83.007 486.833866 82.722511 487.340188 82.216188 
C 487.846511 81.709866 488.131 81.023048 488.131 80.307 
C 488.131 79.590952 487.846511 78.904134 487.340188 78.397812 
C 486.833866 77.891489 486.147048 77.607 485.431 77.607 
C 484.714952 77.607 484.028134 77.891489 483.521812 78.397812 
C 483.015489 78.904134 482.731 79.590952 482.731 80.307 
C 482.731 81.023048 483.015489 81.709866 483.521812 82.216188 
C 484.028134 82.722511 484.714952 83.007 485.431 83.007 
z
" clip-path="url(#p43fc05ffa1)" style="stroke: #000000; stroke-width: 1.5; stroke-linejoin: miter"/>
   </g>
   <g id="patch_27">
    <path d="M 564.631 83.007 
C 565.347048 83.007 566.033866 82.722511 566.540188 82.216188 
C 567.046511 81.709866 567.331 81.023048 567.331 80.307 
C 567.331 79.590952 567.046511 78.904134 566.540188 78.397812 
C 566.033866 77.891489 565.347048 77.607 564.631 77.607 
C 563.914952 77.607 563.228134 77.891489 562.721812 78.397812 
C 562.215489 78.904134 561.931 79.590952 561.931 80.307 
C 561.931 81.023048 562.215489 81.709866 562.721812 82.216188 
C 563.228134 82.722511 563.914952 83.007 564.631 83.007 
z
" clip-path="url(#p43fc05ffa1)" style="stroke: #000000; stroke-width: 1.5; stroke-linejoin: miter"/>
   </g>
   <g id="patch_28">
    <path d="M 701.431 83.007 
C 702.147048 83.007 702.833866 82.722511 703.340188 82.216188 
C 703.846511 81.709866 704.131 81.023048 704.131 80.307 
C 704.131 79.590952 703.846511 78.904134 703.340188 78.397812 
C 702.833866 77.891489 702.147048 77.607 701.431 77.607 
C 700.714952 77.607 700.028134 77.891489 699.521812 78.397812 
C 699.015489 78.904134 698.731 79.590952 698.731 80.307 
C 698.731 81.023048 699.015489 81.709866 699.521812 82.216188 
C 700.028134 82.722511 700.714952 83.007 701.431 83.007 
z
" clip-path="url(#p43fc05ffa1)" style="stroke: #000000; stroke-width: 1.5; stroke-linejoin: miter"/>
   </g>
   <g id="text_17">
    <!-- RF_OUT -->
    <g transform="translate(707.731 83.092234) scale(0.11 -0.11)">
     <defs>
      <path id="DejaVuSans-32" d="M 2522 4238 
Q 1834 4238 1429 3725 
Q 1025 3213 1025 2328 
Q 1025 1447 1429 934 
Q 1834 422 2522 422 
Q 3209 422 3611 934 
Q 4013 1447 4013 2328 
Q 4013 3213 3611 3725 
Q 3209 4238 2522 4238 
z
M 2522 4750 
Q 3503 4750 4090 4092 
Q 4678 3434 4678 2328 
Q 4678 1225 4090 567 
Q 3503 -91 2522 -91 
Q 1538 -91 948 565 
Q 359 1222 359 2328 
Q 359 3434 948 4092 
Q 1538 4750 2522 4750 
z
" transform="scale(0.015625)"/>
     </defs>
     <use xlink:href="#DejaVuSans-35"/>
     <use xlink:href="#DejaVuSans-29" transform="translate(69.484375 0)"/>
     <use xlink:href="#DejaVuSans-42" transform="translate(127 0)"/>
     <use xlink:href="#DejaVuSans-32" transform="translate(177 0)"/>
     <use xlink:href="#DejaVuSans-38" transform="translate(255.71875 0)"/>
     <use xlink:href="#DejaVuSans-37" transform="translate(328.90625 0)"/>
    </g>
   </g>
  </g>
 </g>
 <defs>
  <clipPath id="p43fc05ffa1">
   <rect x="0" y="0" width="749.789" height="319.227"/>
  </clipPath>
 </defs>
</svg>
